<svg width="60" height="60" viewBox="0 0 60 60" fill="none" xmlns="http://www.w3.org/2000/svg">
<rect width="60" height="60" fill="#68B738"/>
<mask id="path-2-inside-1" fill="white">
<path d="M35.1875 45C34.7382 45 34.375 44.7206 34.375 44.375V15.625C34.375 15.2794 34.7382 15 35.1875 15C35.6368 15 36 15.2794 36 15.625V44.375C36 44.7206 35.6368 45 35.1875 45Z"/>
</mask>
<path d="M35.1875 43C35.3646 43 35.5996 43.0529 35.8322 43.2319C36.0676 43.413 36.375 43.8004 36.375 44.375H32.375C32.375 46.2813 34.1531 47 35.1875 47V43ZM36.375 44.375V15.625H32.375V44.375H36.375ZM36.375 15.625C36.375 16.1996 36.0676 16.587 35.8322 16.7681C35.5996 16.9471 35.3646 17 35.1875 17V13C34.1531 13 32.375 13.7187 32.375 15.625H36.375ZM35.1875 17C35.0104 17 34.7754 16.9471 34.5428 16.7681C34.3074 16.587 34 16.1996 34 15.625H38C38 13.7187 36.2219 13 35.1875 13V17ZM34 15.625V44.375H38V15.625H34ZM34 44.375C34 43.8004 34.3074 43.413 34.5428 43.2319C34.7754 43.0529 35.0104 43 35.1875 43V47C36.2219 47 38 46.2813 38 44.375H34Z" fill="white" mask="url(#path-2-inside-1)"/>
<path d="M36.2219 17.1519C36.5659 17.7548 36.8948 18.5492 37.1983 19.5053C37.0668 19.2593 36.9342 19.0382 36.802 18.8412C36.5817 18.513 36.3494 18.233 36.1074 18.0154C35.9809 17.9016 35.8314 17.7866 35.661 17.6933C35.6158 17.5255 35.5697 17.2974 35.5271 17.0328C35.4776 16.7255 35.4383 16.4042 35.4111 16.1364C35.6166 16.2829 35.8939 16.577 36.2219 17.1519Z" stroke="white" stroke-width="2"/>
<mask id="path-5-inside-2" fill="white">
<path d="M23 26.25C20.2436 26.25 18 24.2869 18 21.875V15.625C18 15.2794 18.3193 15 18.7143 15C19.1093 15 19.5967 15.2794 19.5967 15.625V21.875C19.5967 23.5981 21.0307 24.5 23 24.5C24.9693 24.5 26.5 23.5 26.5 22V15.625C26.5 15.2794 26.8907 15 27.2857 15C27.6807 15 28 15.2794 28 15.625V21.875C28 24.2869 25.7564 26.25 23 26.25Z"/>
</mask>
<path d="M23 24.25C21.0889 24.25 20 22.9398 20 21.875H16C16 25.634 19.3982 28.25 23 28.25V24.25ZM20 21.875V15.625H16V21.875H20ZM20 15.625C20 16.6265 19.1646 17 18.7143 17V13C17.4739 13 16 13.9323 16 15.625H20ZM18.7143 17C18.4907 17 18.3321 16.938 18.2017 16.8519C18.1261 16.8021 17.5967 16.4289 17.5967 15.625H21.5967C21.5967 14.4755 20.8235 13.7898 20.4055 13.5138C19.9327 13.2016 19.3329 13 18.7143 13V17ZM17.5967 15.625V21.875H21.5967V15.625H17.5967ZM17.5967 21.875C17.5967 23.3683 18.2547 24.6282 19.3816 25.4497C20.4337 26.2169 21.744 26.5 23 26.5V22.5C22.2867 22.5 21.8953 22.3322 21.7381 22.2176C21.6705 22.1683 21.6475 22.1316 21.6365 22.1099C21.6255 22.0882 21.5967 22.0222 21.5967 21.875H17.5967ZM23 26.5C24.2988 26.5 25.5968 26.1736 26.6307 25.4543C27.6995 24.7107 28.5 23.5151 28.5 22H24.5C24.5 22.0225 24.4974 22.0245 24.494 22.0304C24.4864 22.0436 24.4513 22.0977 24.3463 22.1707C24.1225 22.3264 23.6705 22.5 23 22.5V26.5ZM28.5 22V15.625H24.5V22H28.5ZM28.5 15.625C28.5 16.2461 28.1537 16.6224 27.9637 16.7685C27.7668 16.9199 27.5361 17 27.2857 17V13C26.6403 13 26.0168 13.2198 25.5258 13.5973C25.0417 13.9694 24.5 14.6583 24.5 15.625H28.5ZM27.2857 17C26.8354 17 26 16.6265 26 15.625H30C30 13.9323 28.5261 13 27.2857 13V17ZM26 15.625V21.875H30V15.625H26ZM26 21.875C26 22.9398 24.9111 24.25 23 24.25V28.25C26.6018 28.25 30 25.634 30 21.875H26Z" fill="white" mask="url(#path-5-inside-2)"/>
<mask id="path-7-inside-3" fill="white">
<path d="M23 45C22.447 45 22 44.7206 22 44.375V15.625C22 15.2794 22.447 15 23 15C23.553 15 24 15.2794 24 15.625V44.375C24 44.7206 23.553 45 23 45Z"/>
</mask>
<path d="M23 39C23.6651 39 24.5558 39.1561 25.4726 39.7291C26.3084 40.2515 28 41.7375 28 44.375H16C16 47.3581 17.9151 49.1567 19.1126 49.9051C20.3912 50.7042 21.7819 51 23 51V39ZM28 44.375V15.625H16V44.375H28ZM28 15.625C28 18.2625 26.3084 19.7485 25.4726 20.2709C24.5558 20.8439 23.6651 21 23 21V9C21.7819 9 20.3912 9.29581 19.1126 10.0949C17.9151 10.8433 16 12.6419 16 15.625H28ZM23 21C22.3349 21 21.4442 20.8439 20.5274 20.2709C19.6916 19.7485 18 18.2625 18 15.625H30C30 12.6419 28.0849 10.8433 26.8874 10.0949C25.6088 9.29581 24.2181 9 23 9V21ZM18 15.625V44.375H30V15.625H18ZM18 44.375C18 41.7375 19.6916 40.2515 20.5274 39.7291C21.4442 39.1561 22.3349 39 23 39V51C24.2181 51 25.6088 50.7042 26.8874 49.9051C28.0849 49.1567 30 47.3581 30 44.375H18Z" fill="white" mask="url(#path-7-inside-3)"/>
</svg>
